# xmcd
# 
# Track frame offsets:
#     150
#     12675
#     26720
#     41000
#     54305
#     69915
#     83200
#     97855
#     110403
#     124458
#     138525
#     152050
#     167058
#     181673
#     197208
#     209780
#     222943
#     237750
#     251250
#     266645
#     278795
#     290983
# 
# Disc length: 4027
# 
# Revision: 4
# Processed by: cddbd v1.5.2PL0 Copyright (c) Steve Scherf et al.
# Submitted via: fre:ac v1.0.31
# 
DISCID=4c0fb916
DTITLE=Fats Waller and His Rhythm - The Last Years (1940-43) - Disc 1
DYEAR=1989
DGENRE=Jazz
TTITLE0=Old Grand Dad
TTITLE1=Fat And Greasy
TTITLE2=Little Curly Hair In High Chair
TTITLE3=(You're A) Square From Delaware
TTITLE4=You Run Your Mouth, I'll Run My Business [take 2]
TTITLE5=Too Tired
TTITLE6="Send Me" Jackson
TTITLE7=Eep, Ipe, Wanna Piece of Pie
TTITLE8=Stop Pretending
TTITLE9=I'll Never Smile Again
TTITLE10=My Mommie Sent Me To The Store
TTITLE11=Dry Bones
TTITLE12=Fats Waller's Original E-flat Blues
TTITLE13=Stayin' At Home
TTITLE14=Hey! Stop Kissin' My Sister
TTITLE15=Everybody Loves My Baby
TTITLE16=I'm Gonna Salt Away Some Sugar
TTITLE17='Tain't Nobody's Biz-Ness If I Do
TTITLE18=Abercrombie Had A Zombie
TTITLE19=Blue Eyes
TTITLE20=Scram!
TTITLE21=My Melancholy Baby
EXTD=YEAR: 1989
EXTT0=
EXTT1=
EXTT2=
EXTT3=
EXTT4=
EXTT5=
EXTT6=
EXTT7=
EXTT8=
EXTT9=
EXTT10=
EXTT11=
EXTT12=
EXTT13=
EXTT14=
EXTT15=
EXTT16=
EXTT17=
EXTT18=
EXTT19=
EXTT20=
EXTT21=
PLAYORDER=
